<svg width="88" height="32" fill="none" xmlns="http://www.w3.org/2000/svg"><g clip-path="url(#clip0_6_58)" fill-rule="evenodd" clip-rule="evenodd"><path d="M1.625 8.238v7.356H3.7v-1.551l.453.392c1.3 1.125 2.01 1.43 3.338 1.43 1.414 0 2.536-.511 3.528-1.607.956-1.057 1.385-2.26 1.388-3.899.003-1.11-.177-1.906-.63-2.801-.515-1.015-1.55-1.97-2.535-2.34-1.75-.654-3.458-.291-4.898 1.042l-.644.596V.882H1.625v7.356zM29.215.939c-.034.035-.062 3.346-.062 7.36v7.295h2.166v-1.549l.61.553a6.79 6.79 0 001.28.887c.664.33.687.335 1.76.335 1.313 0 1.809-.139 2.717-.757 3.348-2.281 3.03-7.924-.545-9.671-1.851-.904-3.72-.57-5.33.95l-.447.422-.045-2.918-.045-2.919-.998-.025c-.548-.014-1.026.003-1.06.037zm27.286 7.299v7.356h2.075V.882h-2.075v7.356zM75.608.939c-.035.035-.063 3.346-.063 7.36v7.295h2.166v-1.551l.603.553c.346.317.89.695 1.274.885.6.296.762.335 1.531.369 1.055.046 1.67-.08 2.504-.513 1.219-.634 2.249-1.997 2.606-3.45.206-.835.192-2.225-.032-3.099-.644-2.518-2.912-4.174-5.264-3.84-1.072.151-1.641.43-2.612 1.28l-.608.532-.024-2.916-.023-2.917-.998-.025c-.549-.014-1.026.003-1.06.037zM19.044 4.96c-.95.134-1.938.666-2.634 1.418-.319.345-.71.884-.869 1.199-.926 1.837-.856 4.177.18 5.92.648 1.092 1.901 2.025 3.061 2.28.292.065.87.095 1.366.074.77-.034.933-.073 1.532-.37.384-.19.928-.567 1.273-.884l.604-.553v1.551h2.166V5.214h-2.166v1.551l-.474-.428c-1.286-1.164-2.536-1.59-4.039-1.378zm27.632-.015c-1.377.206-2.654 1.09-3.392 2.348-1.08 1.842-1.082 4.34-.007 6.192.386.664 1.351 1.567 2.032 1.901.75.369 1.223.475 2.127.478 1.236.003 1.987-.304 3.114-1.274l.625-.538v1.542h2.167V5.214h-2.167v1.664l-.519-.51c-1.157-1.14-2.548-1.637-3.98-1.424zm18.76.015c-.903.128-1.915.658-2.58 1.353-1.031 1.078-1.471 2.14-1.548 3.74-.06 1.244.108 2.085.62 3.108.647 1.293 1.93 2.327 3.246 2.616.292.065.87.095 1.366.074.77-.034.932-.073 1.531-.37a6.37 6.37 0 001.274-.884l.604-.553v1.551h2.166V5.214h-2.16l-.025.776-.026.776-.53-.482c-.757-.689-1.194-.96-1.862-1.155-.765-.224-1.354-.272-2.076-.17zM5.876 6.94c-.515.156-1.25.682-1.572 1.127-.509.701-.649 1.208-.646 2.338.003 1.312.203 1.847.982 2.626.703.702 1.286.94 2.31.94 1.026 0 1.608-.238 2.305-.94.669-.674.94-1.306 1.009-2.355.104-1.58-.574-2.898-1.825-3.547-.383-.198-.588-.237-1.354-.258-.496-.013-1.04.018-1.21.069zm13.327.037c-.923.339-1.64 1.118-1.97 2.14-.161.5-.19.762-.16 1.489.031.757.076.968.32 1.49.328.697.901 1.3 1.534 1.614.377.186.563.214 1.426.215.92 0 1.031-.02 1.515-.264 1.532-.776 2.224-2.739 1.625-4.61-.297-.927-1.019-1.702-1.89-2.028-.582-.218-1.865-.243-2.4-.046zm14.034.054c-.671.258-1.382.939-1.685 1.613-.863 1.923-.205 4.132 1.496 5.027.444.233.562.254 1.475.254.86 0 1.05-.028 1.418-.211 1.032-.513 1.685-1.442 1.884-2.68.28-1.733-.607-3.47-2.046-4.009-.675-.252-1.876-.25-2.542.006zm13.453-.006c-.638.252-1.333.898-1.657 1.54-.996 1.973-.164 4.528 1.702 5.227.738.277 1.929.23 2.649-.107.672-.314 1.203-.86 1.552-1.596.27-.57.284-.655.283-1.684-.002-1.352-.184-1.889-.886-2.603-.69-.7-1.17-.899-2.271-.934-.745-.024-.985.004-1.372.157zm18.905-.048c-.906.332-1.638 1.114-1.972 2.105-.16.474-.187.729-.158 1.497.031.854.06.98.373 1.612.367.743.792 1.176 1.495 1.526.36.178.557.207 1.412.207.859 0 1.05-.028 1.418-.21 1.037-.515 1.685-1.442 1.887-2.7.278-1.72-.612-3.45-2.05-3.989-.588-.22-1.868-.246-2.405-.048zm14.043.05c-.85.328-1.573 1.112-1.862 2.024-.598 1.886.095 3.807 1.664 4.614.642.33 1.906.412 2.587.167 1.627-.585 2.542-2.401 2.149-4.264-.26-1.23-.998-2.166-2.005-2.543-.671-.25-1.877-.25-2.533.003zM65.984 20.255c-.103.131-.187.288-.187.35 0 .21.373.586.583.586.315 0 .613-.285.613-.587 0-.301-.298-.587-.613-.587-.118 0-.29.104-.396.238zm17.503-.057c-.357.358-.097.993.406.993.29 0 .587-.297.587-.587s-.297-.587-.587-.587a.671.671 0 00-.406.181zm1.992.057c-.103.131-.187.288-.187.35 0 .21.373.586.584.586.314 0 .612-.285.612-.587 0-.301-.298-.587-.612-.587-.119 0-.29.104-.397.238zm-63.847.003c-.034.033-.06.48-.06.993v.933h-.903v.722h.902v4.693h.722v-4.686l.564-.027.565-.026v-.632l-.565-.027-.564-.027v-1.977h-.3c-.166 0-.328.027-.361.06zm28.821 1.395v1.454l-.293-.289c-.964-.95-2.547-.967-3.582-.035-.856.768-1.185 1.871-.877 2.932.569 1.956 3.021 2.679 4.459 1.315l.293-.279v.848h.722v-7.401h-.722v1.455zm17.6 2.245v3.701h.722v-7.401h-.722v3.7zM3.565 22.213c-.596.198-.892.386-1.298.826-.434.471-.627.87-.728 1.51-.304 1.927 1.42 3.467 3.51 3.133.666-.106 1.362-.45 1.683-.831.276-.33.274-.354-.054-.548-.271-.16-.273-.16-.535.103-.457.456-.872.606-1.675.603-1.063-.004-1.628-.343-2.024-1.216a2.076 2.076 0 011.024-2.764c.894-.416 2.128-.21 2.758.46.202.216.216.218.466.07.142-.083.258-.196.258-.25 0-.182-.676-.756-1.128-.957-.554-.247-1.715-.318-2.257-.139zm6.353.004c-1.955.699-2.53 3.273-1.058 4.742.755.754 2.109.993 3.123.551.484-.21 1.375-1.063 1.375-1.315 0-.07-.11-.183-.245-.254-.24-.125-.257-.116-.745.385-.766.787-1.635.952-2.532.482-.52-.272-.923-.85-1.04-1.489l-.061-.338h4.902l-.057-.339c-.138-.826-.338-1.236-.853-1.751-.39-.39-.627-.546-.995-.655-.577-.172-1.364-.18-1.814-.019zm6.846.004c-.37.133-.506.223-.947.629l-.293.27v-.948l-.338.028-.339.028-.024 2.685-.024 2.685h.701l.042-1.647c.036-1.392.07-1.71.223-2.053.558-1.256 2.231-1.566 2.803-.519.134.246.167.605.205 2.233l.045 1.94.384.029.384.027-.001-1.517c-.001-2.183-.17-2.992-.736-3.52-.489-.456-1.372-.604-2.085-.35zm8.889.021a1.9 1.9 0 00-.514.405l-.217.259-.028-.34c-.028-.33-.037-.338-.39-.338h-.36l-.024 2.685-.024 2.685h.815v-1.63c0-1.92.077-2.315.548-2.81.303-.32.38-.356.711-.332.333.024.389-.002.546-.261.172-.283.172-.29.003-.38-.252-.135-.728-.11-1.066.057zm9.592.021a2.438 2.438 0 00-.632.457l-.27.289-.046-.39c-.043-.378-.057-.392-.383-.42l-.339-.027v5.426h.722v-1.563c0-1.81.101-2.302.562-2.738.408-.386.625-.483 1.089-.483.51 0 .973.3 1.12.726.069.2.11.982.113 2.185l.005 1.873h.702l.036-1.692c.041-1.931.146-2.32.747-2.779.42-.32 1.14-.406 1.567-.186.54.28.595.513.632 2.694l.034 1.963h.704v-1.834c0-2.074-.088-2.555-.566-3.1-.355-.404-.74-.572-1.309-.572-.587 0-1.32.369-1.633.822-.13.19-.258.345-.283.345-.024 0-.156-.182-.292-.406-.428-.705-1.457-.97-2.28-.59zm19.053-.028c-.627.2-1.411.997-1.638 1.663-.212.623-.216 1.44-.01 2.046.69 2.023 3.602 2.434 4.882.688.175-.238.319-.456.32-.484.001-.028-.135-.116-.303-.197l-.305-.145-.281.391c-.764 1.064-2.438 1.152-3.248.17-.26-.317-.464-.84-.464-1.194 0-.192.01-.192 2.392-.192h2.392v-.255c0-.826-.638-1.855-1.421-2.295-.595-.334-1.616-.42-2.316-.196zm6.963-.014c-.371.133-.507.223-.947.629l-.294.27v-.938h-.722v7.401h.722v-2.816l.334.293c.527.463 1.06.658 1.801.658 1.072 0 1.956-.564 2.48-1.583.3-.583.335-1.586.08-2.262-.505-1.339-2.14-2.12-3.454-1.652zm10.57.007c-.543.175-1.287.847-1.584 1.432-.82 1.619.165 3.668 1.93 4.015.875.173 1.655-.039 2.328-.63l.318-.278v.831h.722v-5.426l-.339.028c-.336.027-.338.031-.366.462l-.028.434-.288-.284a3.214 3.214 0 00-.65-.471c-.467-.242-1.466-.297-2.043-.113zm7.183-.051c-.46.11-1.216.567-1.493.902-.489.594-.657 1.066-.66 1.856-.005.869.22 1.413.826 2.002.75.73 2.137.996 3.248.625.42-.14 1.379-.86 1.379-1.036 0-.034-.126-.137-.28-.227l-.278-.165-.285.276c-.848.818-2.261.872-3.141.118-.494-.422-.705-.906-.707-1.619-.005-1.221.89-2.095 2.145-2.095.696 0 1.263.203 1.669.598l.33.32.275-.195.274-.195-.191-.27c-.546-.766-1.956-1.172-3.111-.895zm-51.666 1.75c0 1.933.08 2.388.532 3.012.386.533.942.773 1.8.775.772.002 1.256-.157 1.67-.55.615-.583.806-1.495.763-3.628l-.027-1.308-.383-.028-.384-.028v1.841c0 1.745-.01 1.862-.207 2.232-.507.96-2.047 1.049-2.712.157-.24-.323-.313-.944-.323-2.753l-.007-1.466h-.722v1.743zm38.72.963v2.708h.722v-5.415h-.722v2.707zm17.484-2.652c-.036.036-.065 1.52-.065 3.297v3.232l-.208.136c-.155.102-.28.116-.496.054-.284-.082-.289-.078-.289.224 0 .379.185.493.799.493.387 0 .48-.037.675-.27.312-.37.346-.84.314-4.288l-.028-2.888-.319-.027c-.175-.015-.348.002-.383.037zm2.011 2.652v2.708h.722v-5.415h-.722v2.707zm-75.59-1.95c-.35.156-.741.553-.956.975a2.437 2.437 0 00-.172.385c0 .027.878.049 1.95.049h1.95l-.06-.248c-.092-.38-.513-.858-.954-1.084-.458-.234-1.315-.271-1.758-.076zm37.434.148a2.007 2.007 0 00-1.012 1.375c-.127.576-.038 1.054.302 1.62.54.9 1.645 1.22 2.632.76.565-.263.899-.65 1.077-1.251.172-.58.172-.735-.002-1.318-.383-1.29-1.823-1.86-2.997-1.186zm7.018-.13a2.22 2.22 0 00-.527.335c-.216.201-.556.79-.556.962 0 .062.659.094 1.946.094h1.947l-.059-.203c-.114-.398-.546-.915-.938-1.122-.473-.25-1.318-.28-1.813-.066zm6.655.084c-1.496.795-1.465 3.089.052 3.795 1.315.612 2.82-.198 2.997-1.614.107-.858-.218-1.585-.934-2.088-.331-.233-.483-.276-1.037-.297-.55-.021-.714.01-1.078.204zM71.865 23a2.16 2.16 0 00-1.116 2.31c.275 1.371 1.665 2.117 2.9 1.557.846-.383 1.206-.962 1.21-1.944.003-.56-.031-.7-.267-1.08a2.885 2.885 0 00-.657-.71c-.328-.23-.487-.276-1.036-.3-.525-.024-.722.008-1.034.167z" fill="#000" fill-opacity=".365"/><path d="M1.625 8.283v7.311H3.7v-1.651l.475.45c1.654 1.564 3.43 1.883 5.365.965.951-.451 1.716-1.247 2.23-2.32.48-1 .594-1.51.594-2.669 0-1.681-.492-2.94-1.577-4.035-1.834-1.85-4.594-1.865-6.419-.033-.293.294-.564.536-.6.537-.038 0-.068-1.319-.068-2.932V.972H1.625v7.311zm27.618 0v7.311h1.979l.026-.823.026-.823.676.607c.372.334.869.704 1.104.824 1.697.86 3.731.536 5.205-.829 2.644-2.448 2.123-7.434-.945-9.042-1.865-.978-3.804-.69-5.4.799l-.685.64V.972h-1.986v7.311zm27.258 0v7.311h2.075V.972h-2.075v7.311zm19.134 0v7.311h1.979l.026-.823.026-.823.676.607c.372.334.869.704 1.104.824 2.567 1.3 5.604-.12 6.629-3.1.206-.6.242-.857.248-1.784.008-1.27-.1-1.79-.593-2.825-.791-1.662-2.451-2.729-4.242-2.725-1.186.002-2.184.43-3.186 1.366l-.681.636V.972h-1.986v7.311zM18.663 5.084c-1.972.478-3.385 2.214-3.685 4.526-.235 1.816.336 3.603 1.539 4.813 1.471 1.481 3.543 1.848 5.326.945.248-.126.73-.492 1.07-.813.342-.322.646-.586.677-.586.032 0 .057.366.057.813v.812h1.986V5.214h-1.986v1.733l-.681-.636c-1.29-1.205-2.717-1.612-4.303-1.227zm27.58-.018c-.797.203-1.474.596-2.105 1.223-.672.666-.988 1.18-1.339 2.175-.215.611-.237.798-.233 1.94.004 1.123.03 1.338.24 1.926.33.932.739 1.568 1.431 2.223 1.19 1.126 2.779 1.563 4.273 1.173.743-.193 1.283-.51 2.026-1.187l.64-.584v1.639h2.075V5.214h-2.076v1.643l-.519-.475c-.648-.593-1.291-1.01-1.874-1.212-.584-.203-1.932-.258-2.54-.104zm18.696.048c-1.507.44-2.604 1.465-3.195 2.989-1.268 3.273.37 6.901 3.443 7.626 1.548.365 2.892-.018 4.118-1.174.341-.322.646-.586.677-.586.031 0 .057.366.057.813v.812h1.986V5.214h-1.986v1.733l-.662-.618c-1.032-.964-2.038-1.388-3.264-1.378a5.222 5.222 0 00-1.174.163zM6.002 6.87c-1.343.446-2.167 1.42-2.401 2.84-.28 1.698.508 3.33 1.95 4.04.484.236.632.264 1.4.264.79 0 .91-.024 1.463-.296 2.617-1.289 2.558-5.463-.095-6.679-.612-.28-1.735-.362-2.317-.169zm13.248.061c-.413.135-.702.313-1.088.67-1.249 1.157-1.55 3.054-.739 4.654a3.272 3.272 0 003.518 1.735c1.83-.34 2.871-1.78 2.78-3.847-.03-.684-.082-.922-.315-1.42-.584-1.247-1.504-1.875-2.845-1.94-.584-.028-.874.005-1.311.148zm14.441-.1c-1.561.401-2.553 1.774-2.55 3.528.005 2.007 1.268 3.5 3.108 3.671 1.156.109 2.229-.371 2.936-1.312.529-.704.678-1.236.674-2.404-.002-.92-.023-1.037-.284-1.596-.567-1.212-1.55-1.873-2.871-1.93-.398-.018-.853.001-1.013.043zm13.268.049c-1.386.433-2.275 1.637-2.356 3.193-.091 1.733.586 3.024 1.93 3.676.474.23.634.26 1.393.262.74.001.927-.031 1.37-.238 1.083-.505 1.795-1.498 1.993-2.778.237-1.53-.377-3.004-1.567-3.755-.726-.46-1.94-.617-2.763-.36zm18.667.044c-1.312.488-2.136 1.655-2.242 3.174-.102 1.46.556 2.828 1.698 3.531.354.219 1.15.43 1.615.43 2.1 0 3.542-1.679 3.41-3.973-.081-1.438-.766-2.5-1.963-3.043-.7-.318-1.837-.372-2.518-.119zm14.335-.058c-.966.274-1.631.863-2.105 1.864-.264.556-.28.653-.278 1.63.002 1.298.188 1.832.905 2.606.692.748 1.361 1.04 2.387 1.045 1.118.004 1.61-.19 2.355-.936.734-.734.983-1.315 1.051-2.457.099-1.633-.681-3.025-2.021-3.607-.547-.238-1.708-.31-2.294-.145zM66.179 20.128c-.385.185-.37.822.022.97.653.25 1.086-.687.451-.976a1.514 1.514 0 00-.25-.1l-.224.106zm17.517-.015c-.436.163-.476.686-.071.951.423.277.966-.23.734-.687a.522.522 0 00-.663-.264zm1.983-.004c-.402.161-.37.842.045 1 .187.071.283.054.466-.082.327-.243.345-.582.043-.82-.27-.212-.272-.212-.554-.098zm-35.135 1.588v1.5l-.373-.337c-.556-.502-1.09-.707-1.839-.705-1.061.002-1.906.53-2.385 1.487-.232.465-.277.66-.277 1.202 0 .93.2 1.432.813 2.046.389.39.625.546.993.655.973.289 1.951.092 2.691-.541l.377-.323v.917h.631v-7.401h-.631v1.5zm17.6 2.2v3.701h.631v-7.401h-.631v3.7zM21.66 21.28v.993h-.496c-.491 0-.496.003-.496.27 0 .269.005.271.496.271h.497v4.784h.631v-4.784h1.084v-.541h-1.083v-1.986h-.632v.993zm-17.787.9c-1.637.29-2.678 1.95-2.217 3.536.205.707.65 1.245 1.335 1.615.543.294.62.31 1.476.311.8.001.959-.027 1.4-.243a3.49 3.49 0 00.8-.556l.301-.311-.244-.16c-.161-.106-.283-.132-.358-.076-.062.046-.284.213-.493.372-.975.737-2.577.504-3.246-.472-.83-1.211-.373-2.743.982-3.296.742-.302 1.973-.076 2.484.458.3.312.374.323.664.1l.214-.164-.342-.342c-.638-.638-1.75-.95-2.756-.772zm6.338.006c-1.238.254-2.127 1.403-2.127 2.75 0 1.2.644 2.164 1.713 2.568.772.291 1.72.233 2.397-.148.412-.23 1.16-1.013 1.162-1.214.001-.066-.535-.3-.571-.248-.639.893-1.14 1.194-1.995 1.198-.593.002-1.106-.204-1.466-.59-.262-.28-.566-.963-.568-1.273l-.002-.248h4.81l-.055-.462c-.187-1.581-1.71-2.659-3.297-2.333zm6.982-.035c-.58.14-.848.28-1.236.643l-.434.406v-.927h-.632v5.325h.632l.002-1.512c.001-.831.04-1.67.084-1.863.192-.826.996-1.499 1.792-1.499.557 0 .943.212 1.199.658.208.363.219.464.248 2.298l.03 1.918h.631l-.03-2.008-.03-2.008-.266-.481c-.177-.32-.389-.551-.632-.692-.369-.214-1.026-.34-1.358-.258zm8.672.032c-.145.046-.44.255-.655.466l-.39.383v-.38c0-.373-.005-.38-.316-.38h-.316v5.327h.632v-1.376c.001-1.666.111-2.431.416-2.896.251-.382.734-.634 1.06-.552.16.04.247-.004.368-.189.09-.137.124-.275.08-.32-.128-.127-.594-.17-.88-.082zm9.778-.009c-.409.083-.952.416-1.136.696-.21.32-.3.263-.3-.19 0-.405-.002-.407-.317-.407h-.316v5.325h.612l.042-1.647c.044-1.726.106-2.054.492-2.573.591-.796 1.816-.824 2.294-.052.177.288.197.473.24 2.293l.047 1.98h.606v-1.564c0-1.828.096-2.28.593-2.79.598-.616 1.412-.663 2.009-.116l.331.303.029 2.083.028 2.083h.632L41.5 25.5c-.027-1.98-.04-2.12-.233-2.482-.31-.58-.809-.87-1.495-.868-.697.002-1.185.239-1.654.8l-.34.407-.128-.248c-.384-.755-1.144-1.108-2.007-.935zm19.096.002a2.726 2.726 0 00-1.971 1.528c-.293.635-.278 1.88.03 2.483.627 1.229 2.011 1.775 3.437 1.358.386-.113.6-.257 1.01-.674.285-.291.518-.586.518-.654 0-.069-.106-.172-.235-.231-.219-.1-.259-.08-.597.305-.802.911-1.933 1.084-2.879.439-.364-.248-.754-.896-.85-1.41l-.062-.34h4.902l-.057-.338c-.244-1.456-1.12-2.353-2.433-2.486a3.503 3.503 0 00-.813.02zm6.844.008c-.494.101-.842.287-1.239.661l-.325.307v-.88H59.3v7.221h.721v-2.809l.339.322c.186.177.553.403.816.502 1.344.508 2.821-.11 3.434-1.436.307-.663.326-1.65.043-2.276-.534-1.18-1.834-1.864-3.068-1.612zm10.618-.01a2.766 2.766 0 00-2.194 2.716c.007.87.284 1.508.898 2.07 1.042.952 2.482.973 3.606.052l.4-.329v.915h.633v-5.325h-.632v.924l-.373-.337c-.635-.574-1.56-.846-2.338-.687zm7.024.009c-.965.168-1.859.896-2.17 1.767-.64 1.794.538 3.58 2.453 3.717.982.07 1.775-.165 2.397-.712.373-.327.395-.458.104-.614-.192-.103-.256-.082-.637.21-.608.463-1.3.647-1.968.523-1.764-.328-2.459-2.32-1.27-3.636.405-.448.993-.67 1.742-.66.671.009 1.093.163 1.555.569.29.254.348.272.558.177.328-.15.294-.28-.18-.697-.626-.552-1.652-.807-2.584-.644zm-51.878 1.563c0 2.178.183 2.912.868 3.477.624.514 1.926.61 2.727.202.462-.235.865-.825 1.002-1.465.053-.246.096-1.176.096-2.067v-1.62h-.722v1.855c0 2.069-.028 2.193-.597 2.627-.707.539-2 .315-2.425-.42-.164-.285-.185-.505-.211-2.19l-.03-1.872h-.708v1.473zm38.74 1.167l.025 2.64h.632l.023-2.64.025-2.64h-.728l.024 2.64zm17.49.544c0 3.643 0 3.645-.645 3.559-.336-.045-.348-.037-.348.218 0 .2.055.285.231.352.305.116.729.112.956-.01.406-.217.437-.5.437-4.006v-3.297h-.632v3.184zm2.006-.544l.024 2.64h.632l.024-2.64.024-2.64h-.728l.024 2.64zm-75.41-2.074c-.466.152-.933.545-1.149.969-.099.194-.18.395-.18.447 0 .062.673.094 1.992.094h1.992l-.06-.203c-.119-.402-.497-.874-.878-1.098-.466-.273-1.233-.366-1.717-.209zm37.563.026c-.514.158-1.196.851-1.337 1.36-.41 1.473.572 2.862 2.023 2.862 1.228 0 2.114-.901 2.119-2.156.003-1-.58-1.803-1.511-2.083-.504-.152-.758-.148-1.294.017zm6.99-.055c-.495.119-.932.458-1.208.94-.146.255-.266.494-.267.531 0 .037.893.068 1.985.068 1.171 0 1.986-.035 1.986-.085 0-.21-.2-.567-.503-.903-.474-.525-1.227-.733-1.992-.55zm6.625.068c-.527.176-1.184.844-1.323 1.346-.224.804-.07 1.581.42 2.123.469.52.948.74 1.602.74 1.614 0 2.623-1.697 1.886-3.174-.274-.55-.67-.882-1.264-1.061-.53-.16-.779-.154-1.321.026zm10.754-.013c-.514.158-1.196.851-1.337 1.36-.411 1.48.565 2.862 2.023 2.862 1.229 0 2.114-.901 2.119-2.156.003-1-.579-1.803-1.511-2.083-.504-.152-.758-.148-1.294.017z" fill="#fff" fill-opacity=".92"/></g><defs><clipPath id="clip0_6_58"><path fill="#fff" transform="translate(0 .34)" d="M0 0h88v31.319H0z"/></clipPath></defs></svg>