<svg width="88" height="32" viewBox="0 0 88 32" fill="none" xmlns="http://www.w3.org/2000/svg">
<g clip-path="url(#clip0_6_58)">
<path fill-rule="evenodd" clip-rule="evenodd" d="M1.6246 8.23798V15.5939H2.66255H3.70049V14.8183V14.0427L4.15331 14.4347C5.45382 15.5605 6.16377 15.8646 7.49126 15.8646C8.90549 15.8646 10.0271 15.3537 11.019 14.2576C11.9754 13.2007 12.4037 11.998 12.4074 10.359C12.4099 9.24993 12.2305 8.45333 11.7769 7.55799C11.2624 6.5426 10.2272 5.58733 9.24215 5.21872C7.49171 4.56382 5.78415 4.92674 4.34447 6.25974L3.70049 6.85588V3.86903V0.88208H2.66255H1.6246V8.23798ZM29.2158 0.939483C29.1811 0.974051 29.1528 4.28547 29.1528 8.29818V15.5939H30.2359H31.319V14.8195V14.0452L31.9282 14.598C32.2669 14.9054 32.8357 15.2993 33.2094 15.4852C33.8726 15.8151 33.8957 15.8195 34.9694 15.8195C36.2818 15.8195 36.7777 15.6814 37.6856 15.0629C41.0342 12.782 40.7161 7.13883 37.1405 5.39201C35.29 4.488 33.4208 4.82132 31.8108 6.34241L31.3641 6.76445L31.319 3.84583L31.2738 0.927208L30.2763 0.901846C29.7276 0.887947 29.2504 0.904825 29.2158 0.939483ZM56.5005 8.23798V15.5939H57.5384H58.5764V8.23798V0.88208H57.5384H56.5005V8.23798ZM75.6076 0.939483C75.5729 0.974051 75.5446 4.28547 75.5446 8.29818V15.5939H76.6277H77.7107V14.8187V14.0435L78.3141 14.5964C78.6597 14.9131 79.2038 15.2907 79.588 15.4806C80.1872 15.7768 80.3503 15.8161 81.1192 15.8498C82.1741 15.8959 82.7897 15.7697 83.6225 15.3368C84.8419 14.703 85.872 13.3402 86.2295 11.8876C86.4352 11.0521 86.4207 9.66231 86.1971 8.78818C85.5529 6.26958 83.2846 4.61445 80.9334 4.94741C79.8612 5.09931 79.2916 5.37847 78.3212 6.22797L77.7133 6.76021L77.6894 3.84366L77.6656 0.927208L76.6681 0.901846C76.1194 0.887947 75.6422 0.904825 75.6076 0.939483ZM19.0441 4.95878C18.0943 5.09317 17.106 5.62532 16.41 6.37698C16.091 6.72167 15.7001 7.26104 15.5414 7.57568C14.6147 9.41321 14.6855 11.7533 15.7208 13.4964C16.3692 14.5883 17.6224 15.5214 18.7824 15.7763C19.0744 15.8405 19.6515 15.8714 20.1485 15.8498C20.9174 15.8161 21.0805 15.7768 21.6797 15.4806C22.0639 15.2907 22.6079 14.9131 22.9535 14.5964L23.5569 14.0435V14.8187V15.5939H24.64H25.7231V10.4041V5.21439H24.64H23.5569V5.98996V6.76544L23.0831 6.33664C21.797 5.17269 20.5466 4.74614 19.0441 4.95878ZM46.6759 4.94443C45.2986 5.14967 44.0216 6.03356 43.284 7.29227C42.2042 9.1344 42.2015 11.6312 43.2771 13.4837C43.6625 14.1475 44.6283 15.0514 45.3087 15.3853C46.0594 15.7536 46.5323 15.8597 47.4359 15.8625C48.6718 15.8662 49.4235 15.5589 50.5502 14.5891L51.1754 14.051V14.8225V15.5939H52.2584H53.3415V10.4041V5.21439H52.2584H51.1754V6.04646V6.87844L50.6564 6.3675C49.4994 5.22847 48.1078 4.73097 46.6759 4.94443ZM65.4359 4.95878C64.533 5.08658 63.5214 5.6172 62.8563 6.31191C61.8246 7.38975 61.385 8.4517 61.3082 10.0524C61.2485 11.296 61.4163 12.1371 61.928 13.1596C62.5754 14.4529 63.8585 15.4872 65.1742 15.7763C65.4662 15.8405 66.0433 15.8714 66.5403 15.8498C67.3092 15.8161 67.4722 15.7768 68.0714 15.4806C68.4557 15.2907 68.9997 14.9131 69.3453 14.5964L69.9487 14.0435V14.8187V15.5939H71.0318H72.1149V10.4041V5.21439H71.0353H69.9557L69.9296 5.99032L69.9036 6.76626L69.3731 6.28366C68.6165 5.59518 68.1805 5.32468 67.5118 5.12873C66.747 4.90472 66.1583 4.85652 65.4359 4.95878ZM5.87513 6.93874C5.36076 7.0947 4.62653 7.62135 4.30404 8.06577C3.79499 8.76724 3.65501 9.27385 3.65789 10.4041C3.66132 11.7158 3.86142 12.2506 4.64024 13.0295C5.34289 13.7321 5.92577 13.9693 6.94973 13.9693C7.97567 13.9693 8.55773 13.732 9.25523 13.0295C9.92376 12.356 10.1948 11.7235 10.2639 10.6749C10.3681 9.0955 9.68982 7.7774 8.43896 7.12846C8.05573 6.92962 7.85148 6.89063 7.08511 6.86996C6.5887 6.85651 6.04418 6.88756 5.87513 6.93874ZM19.2032 6.97565C18.2803 7.31456 17.5627 8.0942 17.2331 9.11572C17.0718 9.61556 17.0436 9.87839 17.0732 10.605C17.1041 11.3624 17.1495 11.5731 17.3939 12.0942C17.7211 12.7918 18.294 13.3949 18.9275 13.709C19.3035 13.8953 19.4898 13.9234 20.3528 13.9238C21.2722 13.9241 21.3843 13.9045 21.8682 13.6595C23.3997 12.884 24.0915 10.9211 23.4927 9.05029C23.1961 8.12308 22.4741 7.34823 21.6038 7.02249C21.0206 6.80434 19.7377 6.77925 19.2032 6.97565ZM33.2375 7.03026C32.5658 7.28848 31.8548 7.96901 31.5522 8.6435C30.6894 10.566 31.347 12.7751 33.0484 13.6701C33.4916 13.9032 33.6099 13.9235 34.5231 13.9238C35.3837 13.9241 35.5726 13.896 35.9415 13.7126C36.9732 13.1997 37.6263 12.2708 37.8255 11.0326C38.1045 9.29957 37.2176 7.56268 35.7789 7.02439C35.1036 6.77167 33.903 6.77447 33.2375 7.03026ZM46.6898 7.02376C46.0524 7.27566 45.3568 7.92217 45.0328 8.56398C44.0369 10.537 44.8686 13.0919 46.7346 13.7915C47.473 14.0684 48.664 14.0201 49.3836 13.6841C50.0564 13.37 50.587 12.8243 50.9361 12.0875C51.2063 11.5171 51.2204 11.4333 51.2191 10.4041C51.2175 9.05155 51.0348 8.51524 50.3325 7.80096C49.6433 7.10011 49.1624 6.90245 48.0615 6.86725C47.3171 6.84343 47.0767 6.87086 46.6898 7.02376ZM65.595 6.97565C64.6891 7.30834 63.957 8.08987 63.6231 9.08061C63.4631 9.55536 63.4362 9.80979 63.4646 10.5781C63.4962 11.4315 63.5253 11.5572 63.8381 12.19C64.2053 12.9331 64.6299 13.3663 65.3333 13.7155C65.6936 13.8944 65.8897 13.9233 66.7446 13.9233C67.604 13.9233 67.7946 13.895 68.1631 13.7121C69.1999 13.1977 69.8476 12.2714 70.0503 11.013C70.3275 9.29244 69.4383 7.56232 68.0004 7.02439C67.4124 6.80434 66.1319 6.77844 65.595 6.97565ZM79.6384 7.02692C78.7872 7.35428 78.0655 8.13833 77.7761 9.05029C77.1776 10.9356 77.8708 12.8574 79.4402 13.6644C80.0825 13.9945 81.3459 14.0759 82.0274 13.8307C83.6536 13.2459 84.569 11.4295 84.176 9.56691C83.9166 8.33726 83.1785 7.40139 82.1707 7.02439C81.4998 6.77339 80.2945 6.77456 79.6384 7.02692ZM65.984 20.2543C65.8811 20.385 65.7969 20.542 65.7969 20.6031C65.7969 20.8144 66.1701 21.1898 66.3801 21.1898C66.695 21.1898 66.9928 20.9046 66.9928 20.6031C66.9928 20.3016 66.695 20.0164 66.3801 20.0164C66.2617 20.0164 66.0899 20.1196 65.984 20.2543ZM83.4872 20.197C83.1297 20.5545 83.3896 21.1898 83.8933 21.1898C84.1829 21.1898 84.48 20.8927 84.48 20.6031C84.48 20.3135 84.1829 20.0164 83.8933 20.0164C83.7692 20.0164 83.5864 20.0977 83.4872 20.197ZM85.4794 20.2543C85.3765 20.385 85.2923 20.542 85.2923 20.6031C85.2923 20.8144 85.6655 21.1898 85.8755 21.1898C86.1903 21.1898 86.4882 20.9046 86.4882 20.6031C86.4882 20.3016 86.1903 20.0164 85.8755 20.0164C85.7571 20.0164 85.5853 20.1196 85.4794 20.2543ZM21.6315 20.2572C21.5983 20.2902 21.5713 20.737 21.5713 21.25V22.1826H21.12H20.6687V22.5436V22.9046H21.12H21.5713V25.2513V27.598H21.9323H22.2933V25.2556V22.9132L22.8574 22.8864L23.4215 22.8595V22.5436V22.2277L22.8574 22.2008L22.2933 22.174V21.1854V20.197H21.9925C21.827 20.197 21.6645 20.224 21.6315 20.2572ZM50.4533 21.6518V23.1065L50.16 22.8171C49.1962 21.8662 47.6133 21.8504 46.5776 22.7816C45.7225 23.5504 45.3928 24.6533 45.701 25.7136C46.2697 27.6695 48.7225 28.3928 50.16 27.0286L50.4533 26.7503V27.1741V27.598H50.8143H51.1754V23.8975V20.197H50.8143H50.4533V21.6518ZM68.0533 23.8975V27.598H68.4143H68.7754V23.8975V20.197H68.4143H68.0533V23.8975ZM3.56511 22.2134C2.96851 22.4107 2.67274 22.5988 2.2674 23.0386C1.83273 23.5101 1.64039 23.909 1.5393 24.5489C1.23469 26.4758 2.9594 28.0157 5.04838 27.682C5.71466 27.5755 6.41098 27.2316 6.73158 26.8506C7.00839 26.5216 7.00595 26.4968 6.67778 26.303C6.40683 26.1429 6.40494 26.1433 6.14265 26.4056C5.68614 26.862 5.27096 27.0116 4.46767 27.0089C3.40545 27.0053 2.84008 26.6655 2.44449 25.7928C1.96432 24.7338 2.41398 23.5203 3.46845 23.0293C4.36234 22.613 5.59588 22.8188 6.2256 23.4891C6.42849 23.705 6.44212 23.7071 6.69213 23.5595C6.83384 23.4757 6.94973 23.3633 6.94973 23.3096C6.94973 23.1268 6.27416 22.5531 5.82152 22.3516C5.26807 22.1052 4.10692 22.0341 3.56511 22.2134ZM9.91754 22.217C7.96258 22.9156 7.38837 25.4904 8.85991 26.9594C9.61518 27.7133 10.9686 27.9521 11.9833 27.5104C12.4666 27.3 13.3579 26.4469 13.3579 26.1946C13.3579 26.1257 13.2476 26.0116 13.1129 25.941C12.8738 25.8158 12.8556 25.8252 12.3683 26.3259C11.6024 27.1128 10.7335 27.2784 9.83603 26.8082C9.31643 26.5359 8.91262 25.9577 8.79637 25.319L8.73473 24.9805H11.1858H13.6369L13.5801 24.6421C13.4417 23.816 13.242 23.406 12.7269 22.891C12.3369 22.501 12.1001 22.3451 11.7321 22.2358C11.155 22.0644 10.3675 22.0561 9.91754 22.217ZM16.7643 22.2213C16.3932 22.3537 16.258 22.4435 15.8174 22.8499L15.5241 23.1205V22.6461V22.1717L15.1856 22.1997L14.8472 22.2277L14.8232 24.9128L14.7993 27.598H15.1497H15.5001L15.5421 25.9508C15.5776 24.5591 15.6122 24.2406 15.7647 23.8975C16.3229 22.6418 17.9963 22.3325 18.5683 23.3793C18.7025 23.6248 18.7354 23.9836 18.7733 25.6123L18.8184 27.5528L19.202 27.5806L19.5856 27.6084L19.5849 26.0913C19.584 23.9078 19.4148 23.0986 18.8486 22.5705C18.3605 22.1153 17.4766 21.9671 16.7643 22.2213ZM25.6529 22.2423C25.4902 22.3224 25.2591 22.5044 25.1394 22.6468L24.9217 22.9055L24.8937 22.5666C24.8663 22.2361 24.8567 22.2277 24.5046 22.2277H24.1436L24.1197 24.9128L24.0957 27.598H24.5032H24.9107V25.9682C24.9107 24.0482 24.9878 23.6528 25.4586 23.1579C25.7623 22.8386 25.8398 22.8025 26.1702 22.8264C26.503 22.8504 26.5587 22.8237 26.7161 22.5648C26.8884 22.2816 26.8884 22.2749 26.7194 22.1845C26.4675 22.0496 25.9912 22.0755 25.6529 22.2423ZM35.2451 22.2635C35.0465 22.3553 34.7622 22.5608 34.6133 22.7198L34.3425 23.009L34.2974 22.6184C34.2539 22.2415 34.2404 22.2267 33.9138 22.1997L33.5754 22.1717V24.8849V27.598H33.9364H34.2974V26.0349C34.2974 24.2248 34.3983 23.7327 34.8591 23.2966C35.2666 22.9108 35.4842 22.8144 35.9478 22.8144C36.4578 22.8144 36.9213 23.1145 37.0677 23.5396C37.1369 23.7405 37.1772 24.522 37.1806 25.7252L37.1856 27.598H37.5369H37.8882L37.9241 25.9057C37.9652 23.975 38.0698 23.5857 38.6706 23.1274C39.0917 22.8063 39.8115 22.7208 40.2381 22.9414C40.7781 23.2206 40.8328 23.4539 40.8702 25.6349L40.9038 27.598H41.256H41.6082V25.7641C41.6082 23.6901 41.5204 23.2095 41.0416 22.6643C40.6868 22.2601 40.3029 22.0923 39.7334 22.0923C39.1461 22.0923 38.4137 22.461 38.1005 22.9144C37.9696 23.1038 37.8422 23.2591 37.8174 23.2593C37.7926 23.2597 37.6611 23.0767 37.5251 22.8527C37.0974 22.1482 36.0684 21.8822 35.2451 22.2635ZM54.2977 22.2349C53.671 22.4357 52.887 23.2321 52.6602 23.8984C52.4482 24.521 52.4444 25.3387 52.6506 25.9437C53.3404 27.9669 56.2516 28.3777 57.5319 26.6324C57.7068 26.394 57.8509 26.1761 57.8521 26.148C57.8533 26.12 57.717 26.0316 57.5491 25.9514L57.2438 25.8059L56.9627 26.1973C56.1985 27.2614 54.5248 27.3485 53.7152 26.3663C53.4547 26.0503 53.2513 25.527 53.2513 25.1731C53.2513 24.9814 53.2614 24.9805 55.6431 24.9805H58.0349V24.7262C58.0349 23.9004 57.3973 22.8708 56.6137 22.4312C56.0186 22.0974 54.9975 22.0108 54.2977 22.2349ZM61.2607 22.2213C60.8896 22.3537 60.7544 22.4435 60.3138 22.8499L60.0205 23.1205V22.6516V22.1826H59.6595H59.2984V25.8831V29.5836H59.6595H60.0205V28.1753V26.767L60.3543 27.0601C60.8814 27.5229 61.4141 27.7175 62.155 27.7179C63.2268 27.7186 64.1105 27.1545 64.6346 26.1354C64.9346 25.5521 64.9704 24.5487 64.7154 23.8727C64.2104 22.5344 62.5746 21.7525 61.2607 22.2213ZM71.8314 22.2284C71.2878 22.4028 70.544 23.0752 70.2475 23.6604C69.4273 25.279 70.412 27.3283 72.1769 27.6755C73.0517 27.8476 73.8323 27.6363 74.5055 27.0454L74.8225 26.767V27.1824V27.598H75.1836H75.5446V24.8849V22.1717L75.2061 22.1997C74.8702 22.2275 74.8675 22.2311 74.84 22.6621L74.8122 23.0964L74.5241 22.812C74.3656 22.6556 74.0734 22.4436 73.8748 22.3409C73.4067 22.0987 72.4075 22.0437 71.8314 22.2284ZM79.0139 22.177C78.5535 22.2872 77.7977 22.7442 77.5213 23.0794C77.0321 23.6728 76.864 24.1448 76.8601 24.9354C76.8558 25.8039 77.0803 26.3475 77.6866 26.9367C78.4374 27.6664 79.824 27.9335 80.9347 27.5622C81.3545 27.4219 82.3138 26.7011 82.3138 26.526C82.3138 26.4916 82.1884 26.3894 82.0349 26.2988L81.7561 26.1341L81.4708 26.4097C80.6233 27.2283 79.21 27.2815 78.3296 26.528C77.8364 26.1059 77.625 25.6218 77.6225 24.9092C77.6182 23.6876 78.5124 22.8144 79.7677 22.8144C80.4641 22.8144 81.0306 23.0171 81.4367 23.4115L81.7673 23.7327L82.0418 23.5373L82.3162 23.3419L82.1246 23.0729C81.5787 22.3062 80.1695 21.9004 79.0139 22.177ZM27.3477 23.9262C27.3477 25.8597 27.4282 26.3154 27.8802 26.9395C28.2663 27.4724 28.8224 27.7117 29.6799 27.714C30.4524 27.7159 30.9365 27.5566 31.3498 27.1645C31.9648 26.5807 32.1565 25.6695 32.1129 23.5364L32.0861 22.2277L31.7025 22.2L31.319 22.1722V24.0134C31.319 25.7584 31.3081 25.8752 31.1123 26.2455C30.6048 27.2052 29.0647 27.2939 28.3998 26.4018C28.1595 26.0794 28.0867 25.4584 28.0773 23.6493L28.0697 22.1826H27.7087H27.3477V23.9262ZM66.0677 24.8903V27.598H66.4287H66.7897V24.8903V22.1826H66.4287H66.0677V24.8903ZM83.5516 22.2385C83.5161 22.2739 83.4872 23.7574 83.4872 25.5351V28.7672L83.2792 28.9034C83.1238 29.0053 82.9985 29.0188 82.7828 28.9569C82.4988 28.8755 82.4943 28.8789 82.4943 29.1806C82.4943 29.5599 82.6788 29.6739 83.2927 29.6739C83.6803 29.6739 83.7729 29.637 83.9681 29.4049C84.2796 29.0348 84.3141 28.5634 84.2816 25.1159L84.2543 22.2277L83.9352 22.2008C83.7597 22.1861 83.5871 22.203 83.5516 22.2385ZM85.5631 24.8903V27.598H85.9241H86.2851V24.8903V22.1826H85.9241H85.5631V24.8903ZM9.97331 22.9407C9.62213 23.0956 9.23204 23.4928 9.01651 23.9152C8.92228 24.1001 8.84511 24.2732 8.84511 24.3C8.84511 24.3268 9.72276 24.3487 10.7954 24.3487H12.7457L12.6853 24.1005C12.5928 23.7201 12.1723 23.2427 11.7315 23.0175C11.2726 22.783 10.4161 22.7456 9.97331 22.9407ZM47.4072 23.0878C46.8616 23.4007 46.5314 23.8494 46.3954 24.4634C46.2678 25.0387 46.3569 25.5174 46.6968 26.0833C47.2376 26.9836 48.342 27.3023 49.3288 26.8428C49.8941 26.5796 50.2277 26.1921 50.4059 25.5917C50.5779 25.0127 50.5777 24.8574 50.4043 24.2736C50.0214 22.9843 48.5812 22.4145 47.4072 23.0878ZM54.4252 22.9582C54.2518 23.0333 54.0144 23.1841 53.8975 23.2931C53.6821 23.494 53.3415 24.0831 53.3415 24.2549C53.3415 24.317 54.0008 24.3487 55.2881 24.3487H57.2347L57.1764 24.1457C57.0622 23.7479 56.6298 23.2312 56.2381 23.0244C55.7651 22.7747 54.9197 22.7438 54.4252 22.9582ZM61.0799 23.0417C59.584 23.8372 59.6152 26.1306 61.1315 26.8366C62.4471 27.4491 63.9521 26.639 64.129 25.2231C64.2361 24.3654 63.9108 23.6382 63.195 23.1351C62.8638 22.9024 62.712 22.8588 62.1584 22.8378C61.6086 22.8168 61.4443 22.8479 61.0799 23.0417ZM71.8646 23.0006C71.0372 23.4205 70.5651 24.3979 70.7486 25.3114C71.0237 26.682 72.4142 27.4282 73.6492 26.8683C74.4947 26.485 74.8551 25.9061 74.8597 24.9243C74.8623 24.3647 74.8276 24.2246 74.5923 23.844C74.4436 23.6034 74.1476 23.2842 73.9347 23.1345C73.6069 22.9041 73.4483 22.8581 72.8989 22.8336C72.3736 22.8103 72.1769 22.8421 71.8646 23.0006Z" fill="black" fill-opacity="0.365"/>
<path fill-rule="evenodd" clip-rule="evenodd" d="M1.62462 8.28318V15.594H2.66257H3.70052V14.7686V13.9432L4.17553 14.3924C5.82984 15.957 7.60546 16.2764 9.54146 15.3577C10.4921 14.9066 11.2571 14.1111 11.7717 13.0383C12.2519 12.0375 12.3651 11.528 12.3651 10.3691C12.3651 8.68771 11.8731 7.42854 10.7884 6.33436C8.95398 4.48375 6.19439 4.46949 4.36923 6.30106C4.07589 6.59539 3.80548 6.83691 3.76821 6.83763C3.73093 6.83845 3.70052 5.51908 3.70052 3.90575V0.972412H2.66257H1.62462V8.28318ZM29.2431 8.28318V15.594H30.2325H31.2219L31.2479 14.7711L31.2738 13.9483L31.9501 14.5551C32.3221 14.8888 32.8189 15.2595 33.0542 15.3787C34.751 16.2385 36.7855 15.9147 38.2591 14.5505C40.9033 12.1024 40.3821 7.11626 37.3137 5.5078C35.4486 4.53014 33.5096 4.81715 31.9142 6.30693L31.2287 6.94721V3.95981V0.972412H30.2359H29.2431V8.28318ZM56.5005 8.28318V15.594H57.5385H58.5764V8.28318V0.972412H57.5385H56.5005V8.28318ZM75.6349 8.28318V15.594H76.6243H77.6137L77.6396 14.7711L77.6656 13.9483L78.3419 14.5551C78.7139 14.8888 79.2107 15.2595 79.446 15.3787C82.0131 16.6795 85.0502 15.2596 86.0747 12.2796C86.2814 11.6784 86.3172 11.4218 86.3232 10.4945C86.3314 9.22483 86.2221 8.70432 85.73 7.67025C84.939 6.00836 83.2786 4.94144 81.4885 4.94478C80.3021 4.94694 79.3042 5.37485 78.3017 6.31099L77.6205 6.94721V3.95981V0.972412H76.6277H75.6349V8.28318ZM18.6626 5.08404C16.6912 5.56195 15.2782 7.29785 14.9781 9.6104C14.7427 11.4258 15.3139 13.2127 16.5169 14.4233C17.9883 15.904 20.0601 16.2713 21.8434 15.3676C22.0907 15.2423 22.5721 14.8764 22.9134 14.5546C23.2546 14.2327 23.5593 13.9693 23.5905 13.9693C23.6216 13.9693 23.6472 14.3349 23.6472 14.7816V15.594H24.64H25.6328V10.4042V5.21446H24.64H23.6472V6.08083V6.94721L22.966 6.31099C21.6758 5.10607 20.2494 4.69937 18.6626 5.08404ZM46.2427 5.06617C45.4465 5.26898 44.7692 5.66241 44.1375 6.28879C43.4659 6.9547 43.1497 7.46862 42.7994 8.46369C42.5841 9.07536 42.5615 9.26237 42.5659 10.4042C42.5702 11.5271 42.5969 11.7415 42.8052 12.3298C43.1352 13.262 43.5448 13.8979 44.2371 14.5528C45.4279 15.6792 47.016 16.1155 48.5097 15.7264C49.2533 15.5327 49.7934 15.216 50.5355 14.5388L51.1754 13.9547V14.7743V15.594H52.2133H53.2513V10.4042V5.21446H52.2133H51.1754V6.0358V6.85722L50.6564 6.38202C50.0085 5.78867 49.365 5.3725 48.7821 5.1697C48.1981 4.96653 46.8496 4.91156 46.2427 5.06617ZM64.9395 5.11428C63.4318 5.55338 62.3347 6.57941 61.7443 8.10267C60.4756 11.376 62.1134 15.0042 65.1868 15.7288C66.7354 16.094 68.0794 15.7108 69.3046 14.555C69.6462 14.2329 69.9511 13.9693 69.9823 13.9693C70.0134 13.9693 70.039 14.3349 70.039 14.7816V15.594H71.0318H72.0246V10.4042V5.21446H71.0318H70.039V6.08083V6.94721L69.3766 6.32859C68.3452 5.36537 67.3391 4.94081 66.1128 4.95119C65.7653 4.95416 65.2373 5.02754 64.9395 5.11428ZM6.00205 6.87013C4.65859 7.31572 3.83536 8.2895 3.6006 9.71068C3.32036 11.4079 4.10938 13.0409 5.55195 13.7491C6.035 13.9863 6.18347 14.0145 6.95164 14.0145C7.74075 14.0145 7.86025 13.9902 8.41353 13.7178C11.0307 12.4294 10.9718 8.25493 8.31939 7.03945C7.70745 6.75902 6.58439 6.67698 6.00205 6.87013ZM19.2496 6.93105C18.8368 7.06616 18.5484 7.24397 18.162 7.60175C16.9131 8.75811 16.6118 10.6548 17.4231 12.2545C18.08 13.5498 19.5118 14.2563 20.9414 13.9904C22.7712 13.6501 23.8124 12.2092 23.7217 10.143C23.6917 9.45886 23.6387 9.22095 23.4057 8.72336C22.8216 7.47575 21.9016 6.84838 20.5615 6.78348C19.9773 6.75523 19.687 6.7879 19.2496 6.93105ZM33.691 6.83059C32.13 7.23242 31.1384 8.60495 31.1417 10.3591C31.1456 12.3662 32.4086 13.8588 34.2486 14.0305C35.405 14.1386 36.4778 13.6589 37.185 12.7177C37.714 12.0137 37.8631 11.4822 37.8595 10.314C37.8567 9.39442 37.8357 9.27663 37.5746 8.71795C37.0081 7.50571 36.0252 6.84467 34.7036 6.78718C34.3065 6.76994 33.8508 6.78944 33.691 6.83059ZM46.9591 6.87978C45.5729 7.31301 44.6844 8.51686 44.6027 10.0727C44.5118 11.8063 45.1891 13.0966 46.5328 13.7491C47.0073 13.9795 47.1671 14.0096 47.9262 14.011C48.6667 14.0124 48.8534 13.98 49.2958 13.7734C50.379 13.2676 51.0914 12.2749 51.2895 10.9952C51.5265 9.46428 50.9119 7.99138 49.7225 7.23991C48.996 6.78077 47.7821 6.62255 46.9591 6.87978ZM65.6264 6.92437C64.3141 7.41239 63.49 8.57877 63.3839 10.0982C63.282 11.5578 63.9401 12.9263 65.0819 13.6293C65.4362 13.8475 66.2322 14.0596 66.6969 14.0596C68.7973 14.0596 70.2386 12.3804 70.1077 10.0855C70.0258 8.64755 69.3409 7.58667 68.1436 7.04279C67.4438 6.7249 66.3066 6.67138 65.6264 6.92437ZM79.9608 6.86643C78.995 7.14044 78.3297 7.72946 77.8555 8.73022C77.5921 9.28593 77.5756 9.38296 77.5776 10.3591C77.5805 11.6576 77.7661 12.1919 78.4827 12.966C79.1749 13.7136 79.8442 14.0066 80.8697 14.0108C81.9884 14.0154 82.4798 13.8201 83.2246 13.0752C83.959 12.3406 84.2075 11.7601 84.2764 10.6176C84.3748 8.98529 83.5946 7.59344 82.2546 7.01093C81.7082 6.77337 80.5467 6.70017 79.9608 6.86643ZM66.1785 20.1275C65.7945 20.3126 65.8093 20.9499 66.2011 21.0989C66.8543 21.3472 67.2866 20.4113 66.6523 20.1222C66.5247 20.0641 66.412 20.0192 66.4019 20.0227C66.3918 20.026 66.2914 20.0732 66.1785 20.1275ZM83.6961 20.1134C83.2596 20.276 83.2203 20.7992 83.6246 21.0641C84.0479 21.3415 84.5914 20.8337 84.3594 20.3774C84.2305 20.1238 83.9588 20.0156 83.6961 20.1134ZM85.6786 20.1086C85.2774 20.27 85.3082 20.9512 85.7238 21.1092C85.9106 21.1803 86.0071 21.1633 86.1899 21.0275C86.5174 20.7841 86.535 20.4452 86.2328 20.2075C85.9632 19.9955 85.9608 19.995 85.6786 20.1086ZM50.5436 21.6967V23.1965L50.171 22.86C49.6153 22.3579 49.0813 22.1531 48.3323 22.1548C47.2708 22.1571 46.4258 22.6841 45.9469 23.6425C45.715 24.1067 45.6697 24.3026 45.6697 24.8436C45.6697 25.7742 45.8692 26.2764 46.4827 26.8905C46.8717 27.2799 47.108 27.4356 47.476 27.5449C48.4487 27.8338 49.4273 27.637 50.1671 27.0036L50.5436 26.6814V27.1397V27.5981H50.8595H51.1754V23.8975V20.197H50.8595H50.5436V21.6967ZM68.1436 23.8975V27.5981H68.4595H68.7754V23.8975V20.197H68.4595H68.1436V23.8975ZM21.6615 21.2801V22.2729H21.1651C20.6738 22.2729 20.6687 22.2756 20.6687 22.5437C20.6687 22.8118 20.6738 22.8145 21.1651 22.8145H21.6615V25.2063V27.5981H21.9774H22.2933V25.2063V22.8145H22.8349H23.3764V22.5437V22.2729H22.8349H22.2933V21.2801V20.2873H21.9774H21.6615V21.2801ZM3.87381 22.1805C2.23746 22.4696 1.19581 24.1308 1.65666 25.7161C1.86208 26.4228 2.30732 26.9615 2.99182 27.3314C3.53544 27.6253 3.61179 27.6414 4.46769 27.6423C5.26728 27.6431 5.42703 27.6153 5.86775 27.3989C6.14141 27.2645 6.50117 27.0144 6.66715 26.8431L6.96897 26.5317L6.72456 26.3716C6.56381 26.2662 6.44169 26.2402 6.36741 26.2956C6.30541 26.3418 6.0831 26.5093 5.87353 26.6679C4.89858 27.4054 3.29707 27.1724 2.62773 26.1956C1.79818 24.9849 2.25497 23.4528 3.61026 22.9002C4.35244 22.5977 5.58281 22.8242 6.09384 23.3576C6.39313 23.67 6.46751 23.6813 6.75759 23.4582L6.97159 23.2936L6.63006 22.952C5.99186 22.3139 4.88026 22.0028 3.87381 22.1805ZM10.2122 22.1861C8.97384 22.4401 8.08535 23.5887 8.08535 24.9355C8.08535 26.1354 8.72888 27.1003 9.79815 27.5037C10.5704 27.795 11.5172 27.7369 12.1949 27.3565C12.6069 27.1254 13.3559 26.3431 13.3575 26.1423C13.358 26.0757 12.8223 25.8426 12.7858 25.8936C12.1472 26.7866 11.6462 27.0875 10.7913 27.0915C10.1982 27.0943 9.68488 26.8877 9.32457 26.5012C9.06346 26.2211 8.7593 25.5394 8.75686 25.2288L8.75487 24.9806H11.1592H13.5636L13.509 24.519C13.3217 22.9377 11.7995 21.8605 10.2122 22.1861ZM17.1938 22.1505C16.6142 22.2914 16.3465 22.4309 15.9579 22.7945L15.5241 23.2002V22.7366V22.2729H15.2082H14.8923V24.9355V27.5981H15.2082H15.5241L15.5263 26.0863C15.5274 25.2548 15.5652 24.4162 15.61 24.2227C15.8016 23.3971 16.6064 22.7242 17.4024 22.7242C17.9593 22.7242 18.3452 22.936 18.6006 23.3818C18.8089 23.7455 18.8198 23.8461 18.8488 25.6801L18.8791 27.5981H19.1947H19.5104L19.4803 25.5898L19.4503 23.5816L19.184 23.101C19.0068 22.7812 18.7955 22.5496 18.5522 22.4086C18.183 22.1947 17.5259 22.0698 17.1938 22.1505ZM25.8657 22.1835C25.7206 22.2286 25.4262 22.4381 25.2113 22.649L24.8205 23.0325V22.6527C24.8205 22.2788 24.8156 22.2729 24.5046 22.2729H24.1887V24.9355V27.5981H24.5046H24.8205L24.8212 26.2216C24.822 24.5563 24.9321 23.7905 25.2371 23.3263C25.4882 22.9443 25.9712 22.6924 26.2961 22.7739C26.4574 22.8145 26.5435 22.7704 26.6647 22.5853C26.7551 22.4475 26.7891 22.31 26.7441 22.265C26.617 22.1379 26.1508 22.0947 25.8657 22.1835ZM35.6438 22.1745C35.2352 22.2568 34.6918 22.5895 34.5081 22.8698C34.2981 23.1904 34.2072 23.1328 34.2072 22.6791C34.2072 22.2751 34.2055 22.2729 33.8913 22.2729H33.5754V24.9355V27.5981H33.8814H34.1874L34.2291 25.9509C34.2727 24.2254 34.3354 23.8974 34.7207 23.3785C35.3122 22.5818 36.5372 22.5538 37.0145 23.326C37.1922 23.6136 37.2116 23.7989 37.2551 25.6185L37.3022 27.5981H37.605H37.9077V26.035C37.9077 24.2069 38.0037 23.7552 38.5008 23.2442C39.0993 22.6287 39.9129 22.582 40.5099 23.1287L40.841 23.4321L40.8697 25.515L40.8983 27.5981H41.2141H41.53L41.5013 25.4996C41.4744 23.5201 41.4612 23.3794 41.2679 23.0176C40.9584 22.4382 40.4591 22.1485 39.773 22.1504C39.0765 22.1523 38.588 22.3885 38.1188 22.9498L37.7781 23.3574L37.6514 23.1085C37.2675 22.3543 36.5072 22.0006 35.6438 22.1745ZM54.7405 22.176C53.8794 22.3338 53.1343 22.911 52.7688 23.7036C52.4759 24.3386 52.4911 25.5846 52.7989 26.1874C53.4263 27.416 54.8101 27.9624 56.2359 27.5447C56.6216 27.4317 56.8368 27.288 57.2451 26.871C57.5306 26.5796 57.7641 26.2852 57.7641 26.2169C57.7641 26.1485 57.6584 26.0446 57.5293 25.9857C57.3102 25.8859 57.27 25.9064 56.9316 26.2909C56.1296 27.2021 54.9986 27.3746 54.0533 26.7299C53.6894 26.4817 53.2991 25.8336 53.2037 25.3191L53.1409 24.9806H55.592H58.0431L57.9863 24.6422C57.7422 23.1855 56.8652 22.2894 55.5528 22.1558C55.3046 22.1305 54.9391 22.1396 54.7405 22.176ZM61.5843 22.1841C61.0901 22.2852 60.7425 22.4708 60.3452 22.8454L60.0205 23.1517V22.7123V22.2729H59.6595H59.2985V25.8832V29.4934H59.6595H60.0205V28.0888V26.6841L60.359 27.0061C60.5452 27.1831 60.9122 27.4091 61.1747 27.5082C62.5186 28.0155 63.9961 27.3976 64.6095 26.0717C64.9163 25.4086 64.9346 24.4222 64.6518 23.7963C64.1184 22.6152 62.8177 21.9317 61.5843 22.1841ZM72.2017 22.1731C70.9281 22.4329 69.9976 23.5854 70.0078 24.8904C70.0147 25.7595 70.2919 26.3981 70.9062 26.9595C71.9481 27.9117 73.3882 27.9327 74.5116 27.0121L74.9128 26.6834V27.1407V27.5981H75.2287H75.5446V24.9355V22.2729H75.2287H74.9128V22.7347V23.1965L74.5402 22.86C73.905 22.286 72.98 22.0143 72.2017 22.1731ZM79.2258 22.1828C78.2607 22.3513 77.367 23.0793 77.056 23.9503C76.4154 25.7443 77.5941 27.5298 79.5094 27.6669C80.4908 27.7371 81.2842 27.5016 81.9065 26.9552C82.2789 26.6282 82.3011 26.4967 82.0101 26.341C81.8182 26.2382 81.7542 26.2593 81.3726 26.5505C80.7651 27.0142 80.0731 27.1983 79.4046 27.074C77.6414 26.7461 76.9461 24.7541 78.1354 23.4377C78.5396 22.9903 79.1283 22.7671 79.8769 22.7774C80.5481 22.7867 80.9701 22.9411 81.432 23.3466C81.7216 23.601 81.7799 23.6195 81.9895 23.524C82.3176 23.3744 82.2842 23.2442 81.8103 22.827C81.1838 22.2755 80.1583 22.0199 79.2258 22.1828ZM27.3477 23.7455C27.3477 25.9242 27.5309 26.6578 28.2161 27.2226C28.8403 27.737 30.1419 27.8338 30.9427 27.4253C31.4046 27.1896 31.8079 26.6003 31.9452 25.9601C31.9979 25.7143 32.041 24.7842 32.041 23.8931V22.2729H31.68H31.319V24.1277C31.319 26.1965 31.2907 26.3208 30.7216 26.755C30.0151 27.2938 28.7223 27.0695 28.2975 26.3345C28.1333 26.0504 28.112 25.8299 28.0858 24.1457L28.0567 22.2729H27.7022H27.3477V23.7455ZM66.0889 24.9129L66.1128 27.5529H66.4287H66.7446L66.7685 24.9129L66.7925 22.2729H66.4287H66.065L66.0889 24.9129ZM83.5774 25.4569C83.5774 29.1002 83.5771 29.1022 82.9334 29.0159C82.5973 28.9708 82.5846 28.9786 82.5846 29.2335C82.5846 29.4343 82.6403 29.5191 82.8161 29.5859C83.1212 29.7019 83.5449 29.6977 83.7715 29.5765C84.1784 29.3587 84.2092 29.0758 84.2092 25.5702V22.2729H83.8933H83.5774V25.4569ZM85.5843 24.9129L85.6082 27.5529H85.9241H86.24L86.2639 24.9129L86.2878 22.2729H85.9241H85.5604L85.5843 24.9129ZM10.1744 22.839C9.70816 22.9908 9.24136 23.3844 9.02546 23.8077C8.92627 24.0021 8.84513 24.2033 8.84513 24.255C8.84513 24.3171 9.51835 24.3488 10.8368 24.3488H12.8286L12.7686 24.1457C12.6501 23.7445 12.2718 23.2716 11.8907 23.0482C11.4246 22.775 10.6578 22.6815 10.1744 22.839ZM47.7365 22.8646C47.2227 23.023 46.5408 23.7164 46.3998 24.2241C45.9906 25.6978 46.9722 27.0872 48.4226 27.0872C49.6515 27.0872 50.5371 26.186 50.5416 24.9306C50.5452 23.9313 49.9629 23.1285 49.0308 22.848C48.5268 22.6963 48.2726 22.6996 47.7365 22.8646ZM54.7277 22.8103C54.2321 22.9285 53.7953 23.2678 53.5193 23.7492C53.3728 24.0046 53.2526 24.2439 53.2521 24.2811C53.2516 24.3184 54.1448 24.3488 55.2369 24.3488C56.4084 24.3488 57.2226 24.3143 57.2226 24.2644C57.2226 24.0549 57.0235 23.697 56.7201 23.3612C56.2458 22.8362 55.4925 22.6279 54.7277 22.8103ZM61.3519 22.8783C60.8248 23.0541 60.168 23.722 60.0285 24.2241C59.8053 25.0281 59.9592 25.8051 60.4491 26.3474C60.9178 26.8662 61.3965 27.0872 62.0513 27.0872C63.6654 27.0872 64.6736 25.3903 63.9374 23.9127C63.6634 23.3632 63.2674 23.0309 62.6728 22.852C62.1431 22.6925 61.894 22.6975 61.3519 22.8783ZM72.1058 22.8646C71.5919 23.023 70.91 23.7164 70.7691 24.2241C70.3578 25.7049 71.3344 27.0872 72.7918 27.0872C74.0207 27.0872 74.9063 26.186 74.9108 24.9306C74.9144 23.9313 74.3321 23.1285 73.4 22.848C72.896 22.6963 72.6418 22.6996 72.1058 22.8646Z" fill="white" fill-opacity="0.92"/>
</g>
<defs>
<clipPath id="clip0_6_58">
<rect width="88" height="31.319" fill="white" transform="translate(0 0.340576)"/>
</clipPath>
</defs>
</svg>
